<svg version="1.1" xmlns="http://www.w3.org/2000/svg" xmlns:xlink="http://www.w3.org/1999/xlink" width="70.23688" height="70.23688" viewBox="0,0,70.23688,70.23688"><g transform="translate(-204.88156,-144.88156)"><g data-paper-data="{&quot;isPaintingLayer&quot;:true}" fill-rule="nonzero" stroke-linecap="butt" stroke-linejoin="miter" stroke-miterlimit="10" stroke-dasharray="" stroke-dashoffset="0" style="mix-blend-mode: normal"><path d="M208.38156,180c0,-17.46238 14.15606,-31.61844 31.61844,-31.61844c17.46238,0 31.61844,14.15606 31.61844,31.61844c0,17.46238 -14.15606,31.61844 -31.61844,31.61844c-17.46238,0 -31.61844,-14.15606 -31.61844,-31.61844z" fill="none" stroke="#828282" stroke-width="7"/><path d="M211.86495,180c0,-15.53856 12.59649,-28.13505 28.13505,-28.13505c15.53856,0 28.13505,12.59649 28.13505,28.13505c0,15.53856 -12.59649,28.13505 -28.13505,28.13505c-15.53856,0 -28.13505,-12.59649 -28.13505,-28.13505z" fill="none" stroke="#000000" stroke-width="7"/><path d="M211.86496,180.00001c0,-15.53856 12.59649,-28.13505 28.13505,-28.13505c15.53856,0 28.13505,12.59649 28.13505,28.13505c0,15.53856 -12.59649,28.13505 -28.13505,28.13505c-15.53856,0 -28.13505,-12.59649 -28.13505,-28.13505z" fill="none" stroke="#ffffff" stroke-width="2.5"/><path d="M211.86497,180.00002c0,-15.53856 12.59649,-28.13505 28.13505,-28.13505c15.53856,0 28.13505,12.59649 28.13505,28.13505c0,15.53856 -12.59649,28.13505 -28.13505,28.13505c-15.53856,0 -28.13505,-12.59649 -28.13505,-28.13505z" fill-opacity="0.01569" fill="#00ffff" stroke="#ffffff" stroke-width="0"/></g></g></svg>